<svg xmlns="http://www.w3.org/2000/svg" width="74" height="34" viewBox="0 0 24 24" fill="blue">
  <path d="M12,1C6.485,1,2,5.485,2,11c0,3.309,2.168,6.474,5.581,8.885l0.101,0.084l0.018,0.034C8.733,20.316,10.314,21,12,21 s3.267-0.684,4.298-1.997l0.018-0.034l0.101-0.084C19.832,17.474,22,14.309,22,11C22,5.485,17.515,1,12,1z M12,20 c-1.182,0-2.335-0.243-3.406-0.721c-1.591-0.595-2.841-1.821-3.488-3.403C4.049,14.926,4,12.977,4,11c0-4.411,3.589-8,8-8 s8,3.589,8,8c0,1.977-0.049,3.926-0.106,4.876c-0.648,1.581-1.897,2.807-3.488,3.403C14.335,19.757,13.182,20,12,20z"/>
  <path d="M12,8.5c-1.93,0-3.5,1.57-3.5,3.5S10.07,15.5,12,15.5S15.5,13.93,15.5,12S13.93,8.5,12,8.5z M12,14.5c-1.378,0-2.5-1.122-2.5-2.5 S10.622,9.5,12,9.5s2.5,1.122,2.5,2.5S13.378,14.5,12,14.5z"/>
<text x="50%" y="50%" dominant-baseline="middle" text-anchor="middle" font-size="10" font-family="Roboto, sans-serif" fill="white">Who</text>
</svg>